HIERARCHY
ROOT Hips
{
  OFFSET -69.4423 88.0299 51.6846
  CHANNELS 6 Xposition Yposition Zposition Zrotation Xrotation Yrotation
  JOINT Spine
  {
    OFFSET 12.0259 -0.162853 1.93176e-005
    CHANNELS 3 Zrotation Xrotation Yrotation
    JOINT Spine1
    {
      OFFSET 15.3169 -0.0121909 0
      CHANNELS 3 Zrotation Xrotation Yrotation
      JOINT Spine2
      {
        OFFSET 15.3176 -0.0121922 0
        CHANNELS 3 Zrotation Xrotation Yrotation
        JOINT Neck
        {
          OFFSET 19.9142 1.56236 0
          CHANNELS 3 Zrotation Xrotation Yrotation
          JOINT Head
          {
            OFFSET 6.92646 0 0
            CHANNELS 3 Zrotation Xrotation Yrotation
            End Site
            {
              OFFSET 20.7666 0 0
            }
          }
          JOINT LeftShoulder
          {
            OFFSET -4.94072 -1.14703 8.14416
            CHANNELS 3 Zrotation Xrotation Yrotation
            JOINT LeftArm
            {
              OFFSET 14.108 0 -2.74767e-005
              CHANNELS 3 Zrotation Xrotation Yrotation
              JOINT LeftForeArm
              {
                OFFSET 28.5802 -0.0783412 -0.0284884
                CHANNELS 3 Zrotation Xrotation Yrotation
                JOINT LeftHand
                {
                  OFFSET 27.092 0 0
                  CHANNELS 3 Zrotation Xrotation Yrotation
                  End Site
                  {
                    OFFSET 9.55928 -0.186424 0.145352
                  }
                }
              }
            }
          }
          JOINT RightShoulder
          {
            OFFSET -7.15748 -1.33027 -6.24935
            CHANNELS 3 Zrotation Xrotation Yrotation
            JOINT RightArm
            {
              OFFSET 14.108 0 1.82997e-005
              CHANNELS 3 Zrotation Xrotation Yrotation
              JOINT RightForeArm
              {
                OFFSET 28.5802 -0.0707221 2.30684e-005
                CHANNELS 3 Zrotation Xrotation Yrotation
                JOINT RightHand
                {
                  OFFSET 27.092 0 -1.30073e-005
                  CHANNELS 3 Zrotation Xrotation Yrotation
                  End Site
                  {
                    OFFSET 9.55929 -0.186417 -0.145354
                  }
                }
              }
            }
          }
        }
      }
    }
  }
  JOINT LeftUpLeg
  {
    OFFSET 0.00499725 -0.534999 8.837
    CHANNELS 3 Zrotation Xrotation Yrotation
    JOINT LeftLeg
    {
      OFFSET 39.9035 -0.00124594 0.000252775
      CHANNELS 3 Zrotation Xrotation Yrotation
      JOINT LeftFoot
      {
        OFFSET 39.6689 0 0
        CHANNELS 3 Zrotation Xrotation Yrotation
        JOINT LeftToe
        {
          OFFSET 10.1624 13.6296 0
          CHANNELS 3 Zrotation Xrotation Yrotation
          End Site
          {
            OFFSET 8.38147 0 0
          }
        }
      }
    }
  }
  JOINT RightUpLeg
  {
    OFFSET 0.00499725 -0.535 -8.837
    CHANNELS 3 Zrotation Xrotation Yrotation
    JOINT RightLeg
    {
      OFFSET 39.9036 -0.000268477 0.000106433
      CHANNELS 3 Zrotation Xrotation Yrotation
      JOINT RightFoot
      {
        OFFSET 39.6689 1.17892e-005 0
        CHANNELS 3 Zrotation Xrotation Yrotation
        JOINT RightToe
        {
          OFFSET 10.1624 13.6296 0
          CHANNELS 3 Zrotation Xrotation Yrotation
          End Site
          {
            OFFSET 8.38147 0 0
          }
        }
      }
    }
  }
}
MOTION
Frames:	6
Frame Time:	0.0333333
64.4055 88.8437 63.6109 93.2042 22.4528 1.97792 0.609887 1.16119 0.0737535 1.21867 2.32362 0.135335 1.21866 2.3236 0.135316 -15.9669 -4.3667 -13.8797 42.5076 -4.70832 17.2052 -167.102 -7.25107 -95.7976 -20.942 9.54826 85.1094 -19.1912 1.70588 -12.5312 6.13236 -80.1489 8.64112 -166.943 -9.16585 72.6059 -32.3014 -1.12095 -85.1185 -34.1304 -5.51717 20.0037 26.4372 89.1349 -26.3765 -19.9606 -7.39303 -175.131 -35.3189 0.78175 -1.0182 -2.24085 2.00245 0.568118 90 -1.07344e-014 -9.54166e-015 -4.09503 1.09085 -170.691 -24.9724 -0.840493 0.205701 2.37881 -14.4283 -2.75089 90 -2.16675e-014 -6.36111e-015 
63.0956 88.8238 64.5628 93.6674 17.9766 1.52817 0.682379 1.08553 0.175031 1.36183 2.17354 0.337369 1.36181 2.17354 0.337352 -16.286 -4.4411 -14.9202 42.2462 -4.70416 18.0459 -166.917 -7.61571 -96.7919 -19.2937 8.83859 83.6597 -20.2622 1.87228 -13.1006 5.73265 -79.9165 8.23708 -166.801 -9.67083 71.6833 -30.5387 -1.0634 -84.7126 -33.9058 -5.45573 19.8758 60.9359 89.5579 -60.8545 -20.9921 -7.88414 -174.746 -30.2927 0.721895 -1.25249 -4.07203 -0.435949 0.0259162 90 -3.97569e-015 -4.77083e-015 -2.36101 1.7279 -170.808 -23.2515 -0.869831 0.221329 1.69745 -15.4921 -3.01514 90 -9.93923e-017 -0 
61.7058 88.8128 65.6204 93.847 14.2667 1.0432 0.869459 1.05497 0.321564 1.73344 2.11516 0.627393 1.73342 2.11513 0.627389 -16.39 -4.21975 -14.8228 41.1353 -4.75434 17.3295 -166.675 -7.29311 -96.7464 -17.6754 7.14722 81.9806 -20.9348 1.99102 -13.4807 6.88415 -80.8993 9.37515 -166.619 -9.53532 71.7294 -28.6887 -0.655628 -83.9193 -33.2401 -5.27498 19.5427 140.658 89.3215 -140.598 -21.9779 -7.85039 -174.337 -25.9628 0.642983 -1.46393 -4.50518 -2.62932 -0.482816 90 -8.74653e-015 -1.11319e-014 -0.220428 2.34903 -171.051 -21.1912 -0.895055 0.23807 1.36782 -16.7226 -3.23269 90 7.7526e-015 -0 
60.1613 88.8325 66.4374 94.4086 10.6797 0.499043 0.890176 0.985617 0.465667 1.77272 1.97876 0.916331 1.77273 1.97875 0.916324 -16.4459 -3.76424 -14.5513 40.4841 -4.19564 16.5661 -166.443 -6.7214 -96.6373 -15.4155 5.8462 80.5854 -21.7442 2.13387 -13.9075 8.78426 -82.3621 11.2864 -166.433 -9.09567 71.8605 -26.5961 -0.769824 -83.2913 -32.2115 -4.98673 19.0224 159.679 88.6713 -159.609 -23.487 -5.91611 -173.623 -21.8413 0.564035 -1.64961 -4.9514 -1.12367 -0.112999 90 7.95139e-016 -1.59028e-015 1.06146 4.08884 -171.339 -19.5083 -0.927434 0.263999 0.115725 -18.1052 -3.67206 90 9.0447e-015 -0 
58.5138 88.8158 67.4181 94.5764 8.22806 0.606721 0.983401 0.879862 0.501289 1.95939 1.76864 0.987733 1.95938 1.76863 0.987721 -17.2557 -3.70777 -14.3555 41.1536 -4.55788 16.0496 -165.568 -6.69556 -96.3957 -13.1889 4.22194 79.3592 -22.4723 2.26597 -14.3061 8.12598 -82.3978 10.6837 -165.606 -9.21666 72.0936 -22.9922 -0.727303 -82.5987 -30.8636 -4.61489 18.3312 120.336 89.4467 -120.259 -24.2137 -4.81383 -174.108 -17.7259 0.523402 -1.80101 -4.29122 1.31677 0.597559 90 -7.95139e-015 -6.36111e-015 2.50201 4.97393 -172.322 -18.6594 -0.943008 0.26977 -0.43917 -19.5306 -4.01815 90 -2.84573e-014 -3.18055e-014 
56.4059 88.7771 68.3671 94.1732 6.81163 0.12726 1.10054 0.616116 0.704326 2.19362 1.24599 1.39698 2.19362 1.24597 1.39696 -17.2874 -3.34456 -14.6245 41.1583 -3.66853 16.2521 -165.462 -6.41223 -96.7917 -13.2853 3.7343 78.4309 -23.2196 2.38865 -14.6911 13.2631 -84.7271 15.7616 -165.532 -8.99797 71.7036 -20.9044 -1.64846 -81.5081 -29.3115 -4.19349 17.5158 146.327 89.0926 -146.267 -24.4126 -3.75459 -174.399 -15.5804 0.501879 -1.85824 -3.04544 4.20717 1.32927 90 -1.27222e-014 -1.16538e-014 4.96501 5.24305 -172.581 -17.2996 -0.966699 0.270798 -1.48884 -20.6638 -4.44111 90 -1.02374e-014 -1.90833e-014 
